<svg xmlns="http://www.w3.org/2000/svg"  viewBox="0 0 100 100" width="50px" height="50px"><path fill="#f1bc19" d="M77 12A1 1 0 1 0 77 14A1 1 0 1 0 77 12Z"/><path fill="#e6edb7" d="M50 13A37 37 0 1 0 50 87A37 37 0 1 0 50 13Z"/><path fill="#f1bc19" d="M83 11A4 4 0 1 0 83 19A4 4 0 1 0 83 11Z"/><path fill="#88ae45" d="M87 22A2 2 0 1 0 87 26A2 2 0 1 0 87 22Z"/><path fill="#fbcd59" d="M81 74A2 2 0 1 0 81 78 2 2 0 1 0 81 74zM15 59A4 4 0 1 0 15 67 4 4 0 1 0 15 59z"/><path fill="#88ae45" d="M25 85A2 2 0 1 0 25 89A2 2 0 1 0 25 85Z"/><path fill="#fff" d="M18.5 49A2.5 2.5 0 1 0 18.5 54 2.5 2.5 0 1 0 18.5 49zM79.5 32A1.5 1.5 0 1 0 79.5 35 1.5 1.5 0 1 0 79.5 32z"/><path fill="#edf7f5" d="M38.737,19.268h-0.795c-3.011,0-5.474,2.408-5.474,5.35v37.7c0,2.943,2.463,5.35,5.474,5.35h27.289 c3.011,0,5.474-2.408,5.474-5.35V31.673c-4.936-4.824-7.756-7.581-12.692-12.405H46.258"/><path fill="#472b29" d="M64.926,68H38.075C34.726,68,32,65.275,32,61.926V24.074C32,20.725,34.726,18,38.075,18h0.781 c0.381,0,0.689,0.314,0.689,0.703c0,0.389-0.308,0.703-0.689,0.703h-0.781c-2.59,0-4.696,2.093-4.696,4.668v37.852 c0,2.574,2.107,4.669,4.696,4.669h26.851c2.59,0,4.696-2.094,4.696-4.669V31.453L57.543,19.406H46.258 c-0.381,0-0.689-0.314-0.689-0.703c0-0.389,0.308-0.703,0.689-0.703h11.565c0.18,0,0.352,0.072,0.481,0.201l12.487,12.455 C70.925,30.788,71,30.969,71,31.157v30.768C71.001,65.274,68.275,68,64.926,68z"/><path fill="#85cfcc" d="M57.855,19.574v6.73c0,3.038,2.396,5.523,5.325,5.523h7.08"/><path fill="#472b29" d="M70.26 32.203h-7.08c-3.143 0-5.7-2.646-5.7-5.898v-6.73c0-.207.168-.375.375-.375s.375.168.375.375v6.73c0 2.838 2.221 5.148 4.95 5.148h7.081c.207 0 .375.168.375.375S70.468 32.203 70.26 32.203zM67.507 43.23c-.207 0-.375-.168-.375-.375v-1.838c0-.207.168-.375.375-.375s.375.168.375.375v1.838C67.882 43.062 67.714 43.23 67.507 43.23zM67.445 48.132c-.207 0-.375-.168-.375-.375V44.08c0-.207.168-.375.375-.375s.375.168.375.375v3.676C67.82 47.964 67.651 48.132 67.445 48.132zM62.84 64.674H39.792c-2.643 0-4.792-2.144-4.792-4.78V26.629c0-1.586.792-3.068 2.119-3.962.17-.114.399-.068.513.105.112.172.066.405-.103.52-1.121.755-1.789 2.003-1.789 3.337v33.265c0 2.222 1.819 4.03 4.053 4.03H62.84c2.235 0 4.053-1.808 4.053-4.03V48.982c0-.207.166-.375.37-.375s.37.168.37.375v10.912C67.632 62.53 65.482 64.674 62.84 64.674z"/><path fill="#472b29" d="M45.401 20.493l-.055 7.084c0 1.354-1.154 2.412-2.325 2.412-1.171 0-2.421-1.078-2.421-2.432l.018-7.491c0-.8.859-1.523 1.576-1.523.717 0 1.407.704 1.407 1.504v6.417c0 0-.286.613-.591.613-.304 0-.686-.218-.61-.555v-6.031h-.6l-.02 5.916c0 .845.444 1.225 1.244 1.225.8 0 1.175-.437 1.175-1.283V20.1c0-1.391-.817-2.144-2.062-2.144-1.245 0-2.138.773-2.138 2.164l.019 7.419c0 1.862 1.274 3.006 2.981 3.006s3-1.048 3-2.91v-7.141h-.599V20.493zM53.467 43.843H39.05c-.207 0-.375-.168-.375-.375s.168-.375.375-.375h14.417c.207 0 .375.168.375.375S53.674 43.843 53.467 43.843zM47.825 47.757H39.05c-.207 0-.375-.168-.375-.375s.168-.375.375-.375h8.775c.207 0 .375.168.375.375S48.032 47.757 47.825 47.757zM64.498 47.882H49.454c-.207 0-.375-.168-.375-.375s.168-.375.375-.375h15.043c.207 0 .375.168.375.375S64.705 47.882 64.498 47.882zM58.481 52.42h-6.895c-.207 0-.375-.168-.375-.375s.168-.375.375-.375h6.895c.207 0 .375.168.375.375S58.688 52.42 58.481 52.42zM64.75 52.42h-5.015c-.207 0-.375-.168-.375-.375s.168-.375.375-.375h5.015c.207 0 .375.168.375.375S64.957 52.42 64.75 52.42zM50.708 51.982H39.425c-.207 0-.375-.168-.375-.375s.168-.375.375-.375h11.283c.207 0 .375.168.375.375S50.915 51.982 50.708 51.982zM64.123 56.709h-8.148c-.207 0-.375-.168-.375-.375s.168-.375.375-.375h8.148c.207 0 .375.168.375.375S64.33 56.709 64.123 56.709zM54.093 56.771H39.05c-.207 0-.375-.168-.375-.375s.168-.375.375-.375h15.043c.207 0 .375.168.375.375S54.301 56.771 54.093 56.771zM49.103 70.328c-.128 0-.256-.049-.354-.146-.195-.195-.195-.512 0-.707l2.785-2.785c.195-.195.512-.195.707 0s.195.512 0 .707l-2.785 2.785C49.359 70.279 49.231 70.328 49.103 70.328z"/><path fill="#88ae45" d="M37.233,81.829l-0.131-0.131c-1.058-1.058-1.058-2.79,0-3.848l8.088-8.088 c1.058-1.058,2.79-1.058,3.848,0l0.131,0.131c1.058,1.058,1.058,2.79,0,3.848l-8.088,8.088 C40.023,82.887,38.291,82.887,37.233,81.829z"/><path fill="#472b29" d="M39.156,83.122c-0.862,0-1.671-0.333-2.277-0.94l0,0l-0.13-0.131 c-0.606-0.605-0.939-1.415-0.939-2.277s0.333-1.671,0.94-2.277l8.087-8.088c1.256-1.256,3.299-1.256,4.555,0l0.13,0.13 c0.607,0.606,0.94,1.416,0.94,2.278c0,0.863-0.333,1.672-0.94,2.278l-8.088,8.088C40.828,82.789,40.019,83.122,39.156,83.122z M37.587,81.476c0.867,0.865,2.275,0.866,3.141,0l8.088-8.088c0.866-0.866,0.866-2.275,0-3.141l-0.13-0.13 c-0.866-0.866-2.275-0.867-3.142,0l-8.087,8.088c-0.866,0.866-0.866,2.275,0,3.141L37.587,81.476z"/><path fill="#d1dc82" d="M48.807,70.113c-0.923-0.923-2.374-0.984-3.223-0.135l-0.154,0.154l0.336,0.336l3.022,3.022 l0.154-0.154C49.791,72.487,49.731,71.036,48.807,70.113z"/><g><path fill="#472b29" d="M48.794,74.269c-0.096,0-0.192-0.037-0.265-0.11l-3.581-3.581c-0.146-0.146-0.146-0.384,0-0.53 s0.384-0.146,0.53,0l3.581,3.581c0.146,0.146,0.146,0.384,0,0.53C48.986,74.233,48.89,74.269,48.794,74.269z"/></g><g opacity=".74"><path fill="#77cbd2" d="M60.666 48.417A9.847 9.847 0 1 0 60.666 68.111A9.847 9.847 0 1 0 60.666 48.417Z"/></g><g><path fill="#fdfcef" d="M69.394,49.537c-4.834-4.834-12.672-4.834-17.506,0s-4.834,12.672,0,17.506s12.672,4.834,17.506,0 S74.228,54.371,69.394,49.537z M67.604,65.252c-3.845,3.845-10.08,3.845-13.925,0s-3.845-10.08,0-13.925s10.08-3.845,13.925,0 C71.449,55.173,71.449,61.407,67.604,65.252z"/></g><g><path fill="#472b29" d="M60.641,71.162c-3.298,0-6.596-1.255-9.106-3.766c-2.433-2.432-3.772-5.667-3.772-9.106 s1.34-6.674,3.772-9.106c5.021-5.021,13.191-5.021,18.213,0l0,0c5.021,5.021,5.021,13.191,0,18.213 C67.238,69.907,63.939,71.162,60.641,71.162z M60.641,46.417c-3.042,0-6.084,1.158-8.399,3.473 c-2.244,2.244-3.479,5.227-3.479,8.399c0,3.172,1.236,6.156,3.479,8.399c4.63,4.63,12.167,4.631,16.799,0 c4.631-4.631,4.631-12.167,0-16.799l0,0C66.725,47.575,63.683,46.417,60.641,46.417z M60.641,68.632 c-2.65,0-5.299-1.009-7.316-3.026c-4.034-4.034-4.034-10.598,0-14.632s10.598-4.035,14.632,0c4.034,4.034,4.034,10.599,0,14.632 C65.94,67.623,63.291,68.632,60.641,68.632z M60.641,48.947c-2.394,0-4.787,0.911-6.609,2.733c-3.644,3.645-3.644,9.574,0,13.218 c3.645,3.645,9.574,3.644,13.218,0s3.644-9.574,0-13.218C65.428,49.859,63.034,48.947,60.641,48.947z"/></g><g><path fill="#472b29" d="M38.535,82.673c-0.053,0-0.102-0.034-0.119-0.087l-1.378-4.28c-0.021-0.065,0.015-0.136,0.081-0.157 c0.065-0.02,0.136,0.015,0.157,0.081l1.378,4.28c0.021,0.065-0.015,0.136-0.081,0.157C38.56,82.671,38.548,82.673,38.535,82.673z"/></g><g><path fill="#472b29" d="M39.407,82.375c-0.054,0-0.104-0.035-0.12-0.089l-1.561-5.244c-0.02-0.066,0.018-0.136,0.084-0.155 c0.068-0.02,0.136,0.019,0.155,0.084l1.561,5.244c0.02,0.066-0.018,0.136-0.084,0.155C39.431,82.374,39.419,82.375,39.407,82.375z"/></g><g><path fill="#472b29" d="M39.933,80.533c-0.054,0-0.104-0.035-0.12-0.089l-1.307-4.389c-0.02-0.066,0.018-0.136,0.084-0.155 c0.067-0.022,0.136,0.018,0.155,0.084l1.307,4.389c0.02,0.066-0.018,0.136-0.084,0.155C39.957,80.531,39.945,80.533,39.933,80.533z"/></g><g><path fill="#472b29" d="M40.465,78.608c-0.054,0-0.104-0.035-0.12-0.089l-0.921-3.094c-0.02-0.066,0.018-0.136,0.084-0.155 c0.065-0.02,0.136,0.018,0.155,0.084l0.921,3.094c0.02,0.066-0.018,0.136-0.084,0.155C40.489,78.607,40.477,78.608,40.465,78.608z"/></g></svg>